<svg width="16" height="16" viewBox="0 0 16 16" fill="none" xmlns="http://www.w3.org/2000/svg">
<path d="M11.5997 14.6674C8.87787 14.6639 6.26855 13.5811 4.34394 11.6565C2.41933 9.73185 1.33654 7.12253 1.33301 4.40073C1.33301 3.5874 1.6561 2.80738 2.23121 2.23227C2.80633 1.65715 3.58634 1.33406 4.39967 1.33406C4.5719 1.33275 4.74384 1.34838 4.91301 1.38073C5.07655 1.40493 5.23732 1.44512 5.39301 1.50073C5.50251 1.53915 5.60008 1.60548 5.67608 1.69318C5.75208 1.78087 5.80387 1.88688 5.82634 2.00073L6.73967 6.00073C6.76429 6.1093 6.76133 6.22231 6.73105 6.32945C6.70077 6.43658 6.64415 6.53443 6.56634 6.61406C6.47967 6.70739 6.47301 6.71406 5.65301 7.14073C6.30967 8.5813 7.46181 9.73817 8.89967 10.4007C9.33301 9.57406 9.33967 9.56739 9.43301 9.48073C9.51264 9.40292 9.61048 9.34629 9.71762 9.31602C9.82475 9.28574 9.93777 9.28278 10.0463 9.30739L14.0463 10.2207C14.1565 10.2463 14.2584 10.2995 14.3424 10.3753C14.4264 10.4511 14.4897 10.547 14.5263 10.6541C14.5826 10.8123 14.625 10.9751 14.653 11.1407C14.6798 11.3083 14.6932 11.4777 14.693 11.6474C14.6807 12.4572 14.3485 13.2294 13.769 13.7952C13.1894 14.361 12.4096 14.6745 11.5997 14.6674V14.6674ZM4.39967 2.66739C3.94051 2.66915 3.50065 2.85233 3.17596 3.17702C2.85128 3.5017 2.6681 3.94156 2.66634 4.40073C2.66811 6.76945 3.60986 9.04065 5.2848 10.7156C6.95975 12.3905 9.23095 13.3323 11.5997 13.3341C12.0588 13.3323 12.4987 13.1491 12.8234 12.8244C13.1481 12.4998 13.3313 12.0599 13.333 11.6007V11.3807L10.2397 10.6674L10.0463 11.0341C9.74634 11.6141 9.52634 12.0341 8.96634 11.8074C7.86159 11.412 6.85881 10.7754 6.03083 9.94398C5.20286 9.11255 4.57049 8.10711 4.17967 7.00073C3.93967 6.48073 4.39301 6.24073 4.96634 5.94073L5.33301 5.76073L4.61967 2.66739H4.39967Z" fill="#969696"/>
</svg>
