<svg width="22" height="22" viewBox="0 0 22 22" fill="none" xmlns="http://www.w3.org/2000/svg">
<path d="M19.2496 17.4163L14.5251 12.6918C15.3985 11.3643 15.7483 9.76005 15.5068 8.1895C15.2653 6.61896 14.4497 5.19388 13.2178 4.19019C11.9859 3.18649 10.4255 2.67557 8.83852 2.75635C7.25158 2.83713 5.75104 3.50386 4.62745 4.62745C3.50386 5.75104 2.83713 7.25158 2.75635 8.83852C2.67557 10.4255 3.18649 11.9859 4.19019 13.2178C5.19388 14.4497 6.61896 15.2653 8.1895 15.5068C9.76005 15.7483 11.3643 15.3985 12.6918 14.5251L17.4163 19.2496L19.2496 17.4163ZM4.58293 9.16626C4.58293 6.63901 6.63901 4.58293 9.16626 4.58293C11.6935 4.58293 13.7496 6.63901 13.7496 9.16626C13.7496 11.6935 11.6935 13.7496 9.16626 13.7496C6.63901 13.7496 4.58293 11.6935 4.58293 9.16626Z" fill="white"/>
</svg>
